<mxfile host="app.diagrams.net" modified="2023-04-08T02:55:13.516Z" agent="Mozilla/5.0 (Macintosh; Intel Mac OS X 10_15_7) AppleWebKit/605.1.15 (KHTML, like Gecko) Version/16.4 Safari/605.1.15" version="21.1.5" etag="UidSkzYOhj_4aViJG4jR" type="github">
  <diagram name="ページ1" id="YeheZKYl5yQn7rx-q5qv">
    <mxGraphModel>
      <root>
        <mxCell id="0" />
        <mxCell id="1" parent="0" />
      </root>
    </mxGraphModel>
  </diagram>
</mxfile>
